PathFileType	4	(X/Y/Z)	S01_0006_Gait_markers.trc
DataRate	CameraRate	NumFrames	NumMarkers	Units	OrigDataRate	OrigDataStartFrame	OrigNumFrames
250.000000	250.000000	4	54	mm	250.000000	157	314
Frame#	Time	HEAD_ANT			R_HEAD			L_HEAD			C7			R_BACK			L_BACK			STERNUM			R_ACROMION			R_HUM_PROX			R_HUM_ANT			R_HUM_POST			R_ELBOW_LAT			R_ELBOW_MED			R_FOREARM			R_WIRST_LAT			R_WRITS_MED			R_HAND			L_ACROMION			L_HUM_PROX			L_HUM_ANT			L_HUM_POST			L_ELBOW_LAT			L_ELBOW_MED			L_FOREARM			L_WRIST_LAT			L_WIRST_MED			L_HAND			R_ILIAC			SACRUM			L_ILIAC			R_GTROCH			R_THIGH__1			R_THIGH_2			R_THIGH_3			R_THIGH_4			R_SHANK_1			R_SHANK_2			R_SHANK_3			R_SHANK_4			R_HEEL			R_FOOT_LAT			R_FOOT_MED			L_GTROCH			L_THIGH_1			L_THIGH_2			L_THIGH_3			L_THIGH_4			L_SHANK_1			L_SHANK_2			L_SHANK_3			L_SHANK_4			L_HEEL			L_FOOT_LAT			L_FOOT_MED			
		X1	Y1	Z1	X2	Y2	Z2	X3	Y3	Z3	X4	Y4	Z4	X5	Y5	Z5	X6	Y6	Z6	X7	Y7	Z7	X8	Y8	Z8	X9	Y9	Z9	X10	Y10	Z10	X11	Y11	Z11	X12	Y12	Z12	X13	Y13	Z13	X14	Y14	Z14	X15	Y15	Z15	X16	Y16	Z16	X17	Y17	Z17	X18	Y18	Z18	X19	Y19	Z19	X20	Y20	Z20	X21	Y21	Z21	X22	Y22	Z22	X23	Y23	Z23	X24	Y24	Z24	X25	Y25	Z25	X26	Y26	Z26	X27	Y27	Z27	X28	Y28	Z28	X29	Y29	Z29	X30	Y30	Z30	X31	Y31	Z31	X32	Y32	Z32	X33	Y33	Z33	X34	Y34	Z34	X35	Y35	Z35	X36	Y36	Z36	X37	Y37	Z37	X38	Y38	Z38	X39	Y39	Z39	X40	Y40	Z40	X41	Y41	Z41	X42	Y42	Z42	X43	Y43	Z43	X44	Y44	Z44	X45	Y45	Z45	X46	Y46	Z46	X47	Y47	Z47	X48	Y48	Z48	X49	Y49	Z49	X50	Y50	Z50	X51	Y51	Z51	X52	Y52	Z52	X53	Y53	Z53	X54	Y54	Z54	

158	0.628	1128.762451171875	1706.348388671875	-319.367034912109	1066.3896484375	1647.076293945312	-251.5477447509762	1071.791381835938	1666.6318359375	-396.9308166503902	926.948974609375	1490.1953125	-344.6459655761715	849.6407470703125	1300.523559570312	-270.3058471679685	848.1835327148438	1295.919189453125	-403.1146850585935	1101.032470703125	1321.932373046875	-342.554016113281	1008.947814941406	1442.89013671875	-173.8705291748044	986.5421142578125	1286.536376953125	-78.98739624023409	1053.072875976562	1204.3681640625	-84.3570251464841	934.1565551757812	1199.946899414062	-57.11282730102513	987.7245483398438	1095.8095703125	-56.13627243041968	953.9221801757812	1088.222045898438	-132.142150878906	1109.48046875	925.056396484375	-69.95326232910136	1149.485107421875	865.1522827148438	-113.9182205200193	1091.944946289062	833.351806640625	-66.5695037841795	1173.743530273438	781.280029296875	-58.93338394165022	998.204833984375	1439.228515625	-511.6339416503903	954.7083740234375	1270.340698242188	-597.2385253906248	1010.465087890625	1185.238891601563	-599.8173217773435	886.878662109375	1196.718505859375	-612.3197631835935	936.993408203125	1087.026123046875	-619.913146972656	890.1707763671875	1087.95947265625	-557.873352050781	1023.033630371094	902.8732910156251	-617.6169433593748	1056.394409179688	840.1070556640626	-569.5974121093748	999.956787109375	822.2449951171876	-623.9318237304685	1069.62890625	756.8521118164064	-616.8737182617186	987.08837890625	1045.505737304688	-156.5751495361326	868.6505126953125	1012.90283203125	-332.4277038574216	993.6993408203125	1031.465454101562	-502.5747375488279	925.8977661132812	910.017578125	-144.3492736816404	886.7651977539062	640.6920166015625	-161.4214782714842	945.1795043945312	639.7393188476562	-154.8926544189452	920.7626342773438	539.6171875	-186.6705932617186	860.834228515625	564.1635131835938	-180.8489990234374	732.6107177734375	379.8952636718751	-175.8125762939452	764.8710327148438	331.7576904296876	-190.9454650878905	711.8319702148438	265.5251159667969	-209.9743041992187	664.217529296875	306.6569519042969	-198.8404846191406	510.501953125	170.0328826904297	-276.3699035644531	610.6639404296875	30.26227188110356	-211.70166015625	664.9080810546875	28.20404052734382	-309.0196228027344	974.8348999023438	917.9194946289064	-508.4911193847654	1157.0185546875	677.3822021484376	-481.8748168945311	1102.34423828125	674.0187377929689	-504.4053344726561	1124.041748046875	574.4592285156251	-470.1007080078124	1180.360961914062	601.6537475585939	-456.047149658203	1228.844604492188	334.6280212402345	-456.5847778320312	1179.005004882812	299.1684875488282	-457.8798522949218	1199.179565429688	215.3602142333985	-441.9743652343749	1258.718505859375	238.1368103027345	-435.4414367675781	1202.79931640625	33.86632156372079	-371.7278442382812	1377.988647460938	37.26446914672862	-442.4634094238281	1414.478637695312	58.32253646850594	-348.5302429199219	
159	0.632	1134.626586914062	1706.6884765625	-319.9433593749996	1072.168334960938	1647.164916992188	-252.3182220458981	1077.773681640625	1667.119750976562	-397.7341918945309	933.087646484375	1490.20654296875	-345.7567443847653	856.3447265625	1300.227661132812	-271.7504577636716	854.4297485351562	1296.08056640625	-403.9035339355466	1107.318115234375	1322.25927734375	-343.508361816406	1015.035583496094	1443.009521484375	-174.9728240966794	992.3653564453125	1286.552734375	-80.02854919433565	1058.78125	1204.274536132812	-85.10166168212864	939.839599609375	1200.289184570312	-58.28681182861301	993.201416015625	1095.7294921875	-57.1493873596189	959.4721069335938	1088.105590820312	-132.9781188964841	1114.515869140625	924.5986328125	-70.37200927734355	1154.343627929688	864.3706665039062	-114.2449569702146	1096.49609375	832.9393920898438	-66.86928558349591	1178.145751953125	780.4518432617188	-59.26557540893538	1004.271118164062	1439.0810546875	-512.8511352539059	961.0366821289062	1269.969482421875	-598.117980957031	1016.890075683594	1185.0302734375	-601.8532714843748	893.2926025390625	1196.233520507813	-612.7977294921873	943.8253784179688	1086.5	-620.147033691406	896.4805297851562	1087.594970703125	-557.868225097656	1029.228393554688	902.2978515625001	-618.1003417968748	1062.7431640625	839.5668945312501	-570.145568847656	1006.096008300781	821.6891479492189	-624.2006835937498	1075.780151367188	756.2524414062501	-617.2308959960936	995.4818115234375	1045.414672851562	-156.6897735595701	875.2205810546875	1013.301513671875	-332.3048095703123	1000.389282226562	1031.362670898438	-502.943420410156	932.8429565429688	909.1573486328125	-144.7239685058592	894.5952758789062	639.8970336914062	-161.7294464111327	952.8834838867188	639.2512817382812	-155.0249938964842	928.8899536132812	538.7928466796875	-186.625518798828	868.940185546875	563.2176513671875	-181.2178802490233	739.5927734375	380.9921569824219	-175.4591064453124	771.314453125	332.2075500488282	-190.4461364746093	717.486083984375	266.7157592773438	-209.1231842041015	670.457275390625	308.4360351562501	-198.4092864990234	515.7232666015625	173.8101043701172	-275.5407104492187	611.8038330078125	30.98805618286137	-211.7045135498047	665.10888671875	28.24406433105476	-309.0496826171875	981.5394897460938	918.4692993164064	-509.3021850585935	1164.366577148438	678.1904296875001	-483.9627380371092	1109.152221679688	674.7700195312501	-504.9620361328123	1130.801147460938	575.3710327148439	-470.5571289062499	1187.293334960938	602.9292602539064	-456.802764892578	1234.595581054688	335.023406982422	-456.6257324218749	1184.559448242188	300.2335815429689	-458.8763122558593	1203.16259765625	216.0775299072266	-442.2169189453124	1262.97265625	238.1979522705079	-435.0359191894531	1203.30322265625	34.44613265991219	-372.0531311035156	1379.3291015625	34.88801956176768	-441.3452758789062	1415.085083007812	55.48251724243172	-347.2350769042969	
160	0.636	1140.385498046875	1707.074584960938	-320.4418029785152	1078.58837890625	1647.415405273438	-252.6231994628903	1083.832275390625	1667.734008789062	-398.4162292480465	939.1632080078125	1490.52685546875	-347.1225585937497	862.6144409179688	1300.191284179688	-273.0138244628903	860.5476684570312	1296.229614257812	-405.1136474609372	1113.629150390625	1322.643310546875	-344.7038574218747	1021.043823242188	1443.24755859375	-175.9343872070309	998.0833129882812	1286.710571289062	-81.01367950439425	1064.504028320312	1204.277709960938	-85.80879211425754	945.3956909179688	1200.381469726562	-59.50458145141575	998.6055908203125	1095.8486328125	-58.28201293945288	965.4622802734375	1088.072631835938	-134.0002593994138	1119.3740234375	924.1039428710938	-71.01773834228496	1159.205078125	863.752685546875	-114.548515319824	1101.158935546875	832.6828002929688	-67.23999786376935	1182.529052734375	779.7979736328125	-59.42949295043928	1010.499572753906	1439.006225585938	-513.9364013671872	967.3203125	1269.73583984375	-598.8014526367185	1023.187744140625	1184.778076171875	-601.658508300781	899.7396240234375	1195.935180664063	-613.233703613281	950.2913208007812	1086.069458007813	-620.6166381835935	903.1682739257812	1087.094970703125	-558.2426757812498	1035.511840820312	901.7109375000001	-618.478088378906	1069.02734375	838.9250488281251	-570.5445556640623	1012.245971679688	821.2461547851564	-624.4408569335935	1081.840942382812	755.7062988281251	-617.5766601562499	1003.177551269531	1045.043579101562	-157.3234558105466	881.7352905273438	1013.838134765625	-332.2303161621091	1006.95263671875	1031.349487304688	-503.5508728027341	940.0200805664062	908.2591552734375	-145.1283264160154	902.3633422851562	639.2138061523438	-162.0863037109374	960.6520385742188	638.7699584960938	-155.1502685546874	937.2479858398438	538.1849975585938	-186.4584960937499	877.1900024414062	562.3142700195312	-181.4156494140624	746.7202758789062	382.0036315917969	-175.1702880859374	777.92919921875	332.7655639648438	-189.7645568847655	723.31884765625	267.7472534179688	-208.2873840332031	676.7777099609375	310.0343322753907	-198.050552368164	521.2532348632812	177.6363677978516	-274.8111877441406	613.0291137695312	31.8506183624268	-211.6946105957031	665.3847045898438	28.33422279357917	-309.0542297363281	988.3125610351562	919.4811401367189	-510.158264160156	1171.406372070312	679.3847045898439	-484.5624694824217	1115.9814453125	675.8468017578126	-505.6064147949217	1137.82080078125	576.4052734375001	-471.2191162109374	1194.185180664062	603.6296997070314	-457.4875183105468	1240.477416992188	335.2364196777345	-456.6405029296874	1189.698852539062	301.4091186523439	-459.4806213378906	1206.779174804688	216.8878784179688	-443.0636291503906	1266.85107421875	237.8977813720704	-434.8612670898437	1203.734252929688	35.05511474609384	-372.4555358886719	1380.215454101562	32.2855339050294	-440.2549438476562	1415.589111328125	52.79427337646492	-346.0212097167969	
161	0.64	1146.216552734375	1707.47802734375	-321.155609130859	1084.380126953125	1647.730590820312	-253.4338684082028	1089.858642578125	1668.4736328125	-399.2429504394527	945.6318969726562	1490.955078125	-347.8594055175778	868.8473510742188	1300.1572265625	-274.1560974121091	866.895751953125	1296.361450195312	-406.1699218749997	1119.972045898438	1323.17431640625	-345.7289123535153	1027.036254882812	1443.524658203125	-176.85578918457	1003.95068359375	1286.914184570312	-82.00302124023409	1070.082885742188	1204.419555664062	-86.44419860839817	950.9426879882812	1200.70361328125	-60.6133728027341	1004.051696777344	1096.109497070312	-59.32588195800757	971.2803344726562	1088.197998046875	-135.2328033447263	1124.275756835938	923.7083129882812	-71.36748504638652	1164.043579101562	863.2883911132812	-114.8355484008787	1105.740112304688	832.4698486328125	-67.67282867431622	1186.687866210938	779.2926025390625	-59.7924728393553	1016.651611328125	1438.97900390625	-514.9424438476559	973.6661987304688	1269.567016601563	-599.6077880859373	1029.763305664062	1184.824462890625	-603.4383544921873	906.0419921875	1195.76904296875	-613.6198120117185	953.6808471679688	1086.968383789063	-622.3028564453123	909.9005126953125	1086.805541992188	-558.7415771484373	1041.79248046875	901.2677001953126	-618.8398437499998	1075.338256835938	838.5546875000001	-570.867980957031	1018.48095703125	821.0016479492189	-624.7257690429685	1088.017578125	755.2749633789064	-617.9963378906249	1010.381896972656	1044.7978515625	-157.5731506347654	887.8748168945312	1014.491577148438	-332.6968078613279	1013.286499023438	1031.540161132812	-504.0524291992185	947.1378173828125	907.4886474609375	-145.3673858642576	910.0370483398438	638.7982788085938	-162.4050903320311	968.590087890625	638.4232177734375	-155.5618743896483	945.6826782226562	537.5807495117188	-186.2726135253905	885.412353515625	561.4912109375	-181.6480560302733	754.1491088867188	383.0741577148438	-174.9976043701171	784.7268676757812	333.4675903320313	-189.6079559326171	729.5442504882812	268.7687988281251	-207.450942993164	683.4055786132812	312.5451049804688	-196.0454406738281	527.201904296875	181.478744506836	-274.2165832519531	614.4318237304688	32.65716171264653	-211.6221466064453	665.685791015625	28.44758415222175	-309.082763671875	996.5863037109375	921.0854492187501	-510.3551940917966	1178.264038085938	680.2978515625001	-485.1230468749998	1122.87353515625	676.8336791992189	-506.2747802734373	1144.982421875	577.4667968750001	-471.715606689453	1201.3076171875	605.1956176757814	-458.1263122558593	1245.762329101562	335.4090270996095	-456.9334411621093	1194.87353515625	302.2632446289064	-460.3600158691406	1210.185546875	217.4406280517579	-443.9059448242187	1270.438720703125	237.4776000976563	-434.8135681152343	1204.28369140625	35.57480621337899	-372.7742919921875	1381.14111328125	30.01286315917978	-439.1448364257812	1416.037719726562	50.17954254150398	-344.7644653320312	
